<?xml version="1.0" standalone="no"?>
<!DOCTYPE svg PUBLIC "-//W3C//DTD SVG 1.1//EN" "http://www.w3.org/Graphics/SVG/1.1/DTD/svg11.dtd" >
<svg xmlns="http://www.w3.org/2000/svg">
<metadata>
Created by FontForge 20120731 at Thu Jul 27 10:54:51 2017
 By admin
</metadata>
<defs>
<font id="iconfont" horiz-adv-x="1024" >
  <font-face 
    font-family="iconfont"
    font-weight="500"
    font-stretch="normal"
    units-per-em="1024"
    panose-1="2 0 6 3 0 0 0 0 0 0"
    ascent="896"
    descent="-128"
    x-height="792"
    bbox="0 -128 1279 896"
    underline-thickness="0"
    underline-position="0"
    unicode-range="U+0078-E620"
  />
<missing-glyph 
 />
    <glyph glyph-name=".notdef" 
 />
    <glyph glyph-name=".notdef" 
 />
    <glyph glyph-name=".null" horiz-adv-x="0" 
 />
    <glyph glyph-name="nonmarkingreturn" horiz-adv-x="341" 
 />
    <glyph glyph-name="x" unicode="x" horiz-adv-x="1001" 
d="M281 543q-27 -1 -53 -1h-83q-18 0 -36.5 -6t-32.5 -18.5t-23 -32t-9 -45.5v-76h912v41q0 16 -0.5 30t-0.5 18q0 13 -5 29t-17 29.5t-31.5 22.5t-49.5 9h-133v-97h-438v97zM955 310v-52q0 -23 0.5 -52t0.5 -58t-10.5 -47.5t-26 -30t-33 -16t-31.5 -4.5q-14 -1 -29.5 -0.5
t-29.5 0.5h-32l-45 128h-439l-44 -128h-29h-34q-20 0 -45 1q-25 0 -41 9.5t-25.5 23t-13.5 29.5t-4 30v167h911zM163 247q-12 0 -21 -8.5t-9 -21.5t9 -21.5t21 -8.5q13 0 22 8.5t9 21.5t-9 21.5t-22 8.5zM316 123q-8 -26 -14 -48q-5 -19 -10.5 -37t-7.5 -25t-3 -15t1 -14.5
t9.5 -10.5t21.5 -4h37h67h81h80h64h36q23 0 34 12t2 38q-5 13 -9.5 30.5t-9.5 34.5q-5 19 -11 39h-368zM336 498v228q0 11 2.5 23t10 21.5t20.5 15.5t34 6h188q31 0 51.5 -14.5t20.5 -52.5v-227h-327z" />
    <glyph glyph-name="yuan-copy" unicode="&#xe601;" 
d="M512 93v0q121 0 206 85t85 206t-85 206t-206 85t-206 -85t-85 -206t85 -206t206 -85v0zM512 -38v0q-115 0 -212 56.5t-153.5 153.5t-56.5 212t56.5 212t153.5 153.5t212 56.5t212 -56.5t153.5 -153.5t56.5 -212t-56.5 -212t-153.5 -153.5t-212 -56.5v0z" />
    <glyph glyph-name="chart" unicode="&#xe606;" 
d="M475 821q-96 0 -184 -37.5t-151.5 -101t-101 -151.5t-37.5 -184t37.5 -184t101 -151.5t151.5 -101t184 -37.5t184 37.5t151.5 101t101 151.5t37.5 184h-474v474zM549 895v-474h474q0 96 -37.5 184t-101 151.5t-151.5 101t-184 37.5v0z" />
    <glyph glyph-name="bill" unicode="&#xe607;" 
d="M902 -93q-5 6 -28 43.5t-28 43.5q-7 9 -18.5 9t-18.5 -9q-5 -6 -34.5 -43.5t-34.5 -43.5q-7 -9 -18 -9q-12 0 -19 9q-5 6 -34.5 43.5t-34.5 43.5q-7 9 -18.5 9t-18.5 -9q-5 -6 -34 -43.5t-35 -43.5q-7 -9 -18 -9q-12 0 -19 9q-5 6 -34 43.5t-35 43.5q-7 9 -18.5 9
t-18.5 -9q-5 -6 -40.5 -43.5t-41.5 -43.5q-7 -9 -18 -9q-12 0 -19 9q-5 6 -34 43.5t-34 43.5q-8 9 -19.5 9t-18.5 -9q-5 -6 -34.5 -43.5t-34.5 -43.5q-1 -1 -5 -4q-24 10 -39 33t-15 52v793q0 37 23.5 63t56.5 26h756q33 0 56 -26q10 -11 16.5 -29.5t6.5 -32.5v-1v-793
q0 -27 -12.5 -48.5t-32.5 -32.5zM180 407h225q11 0 19 11t8 26.5t-8 26t-19 10.5h-225q-15 0 -23 -18q-4 -9 -4 -19t4 -19q8 -18 23 -18v0zM533 691h-353q-15 0 -23 -19q-4 -9 -4 -18.5t4 -18.5q8 -19 23 -19h353q11 0 19 11t8 26.5t-8 26.5t-19 11v0zM821 293h2
q13 0 21.5 9t8.5 21.5t-8.5 21t-21.5 8.5h-2h-105v1q12 2 21 11l88 87q11 11 11 27t-11.5 27.5t-27.5 11.5t-27 -11l-88 -88l-3 -4l-4 4l-88 88q-11 10 -25 10q-16 0 -27.5 -11.5t-11.5 -27.5q0 -15 10 -26l87 -87q9 -9 22 -11v-1h-105h-2q-12 0 -21 -8.5t-9 -21t9 -21.5
t21 -9h2h105v-59h-105h-2q-12 0 -21 -9t-9 -21.5t9 -21t21 -8.5h2h105v-83q0 -15 10.5 -26t26 -11t26.5 11t11 26v83h105h2q12 0 21 8.5t9 21t-9 21.5t-21 9h-2h-105v59h105v0zM992 -102h-180h180zM812 -102h-239h239zM573 -102h-255h255v0zM108 -102h210h-210z" />
    <glyph glyph-name="boutique" unicode="&#xe608;" horiz-adv-x="1170" 
d="M216 548h-105v0q-30 0 -51.5 -21.5t-21.5 -51.5v-472q0 -31 21.5 -52.5t51.5 -21.5h105v619zM1069 558h-144h-148h-5h-1q-30 0 -51 21t-21 51v1l1 34q-1 73 -16 145l-3 14q-7 30 -33.5 51t-56.5 21t-55 -21.5t-30 -50.5l-9 -47q-5 -29 -22 -67.5t-35 -62.5l-31 -41
q-18 -24 -53 -41.5t-65 -17.5h-1v-618h681q30 0 55 21.5t30 51.5l76 483q4 30 -14 51.5t-49 21.5z" />
    <glyph glyph-name="clue" unicode="&#xe609;" horiz-adv-x="1092" 
d="M921 -111h-129v0h-622q-56 0 -96 40.5t-40 98.5v834h870v-845q0 -32 -25 -77q4 0 11.5 -0.5t27 2t35.5 9t32 24t22 42.5v717h51v-717q0 -56 -39.5 -92t-97.5 -36zM726 631h-538v-51h538v51v0zM188 427v-51h537v51h-537zM726 222h-538v-51h538v51v0z" />
    <glyph glyph-name="check" unicode="&#xe60a;" 
d="M187 813h652q20 0 33.5 12.5t13.5 29.5t-13.5 29t-33.5 12h-652q-19 0 -32.5 -12t-13.5 -29t13.5 -29.5t32.5 -12.5v0zM414 440h-1h1v0zM913 731h-802v0q-19 0 -33 -13.5t-14 -33.5v-757q0 -19 14 -32.5t33 -13.5h802v0q19 0 33 13.5t14 32.5v757q0 20 -14 33.5t-33 13.5
v0v0zM659 299q19 0 33 -12.5t14 -29.5t-14 -29t-33 -12h-112v-100q0 -19 -12.5 -32.5t-29.5 -13.5t-29.5 13.5t-12.5 32.5v100h-112q-19 0 -33 12t-14 29t14 29t33 12h112v60h-112q-19 0 -33 12t-14 29t14 29t33 12h62l-23 43v0l-27 51q-9 17 -4.5 35t20 25.5t33 1.5
t25.5 -23l22 -41l1 -2l23 -42v0l23 -43l23 43v0l22 42l1 2l22 41q9 17 26.5 23t32.5 -1.5t19.5 -25.5t-4.5 -35l-27 -51l-23 -43v0h61q19 0 33 -12t14 -29t-14 -29t-33 -12h-112v-60h112v1z" />
    <glyph glyph-name="check1" unicode="&#xe60b;" 
d="M33 7v137q0 29 20 49t48 20h206q42 0 72 30t30 73v34q0 51 -34 77q-103 75 -103 197q0 99 70.5 169t169.5 70t169.5 -70t70.5 -169q0 -122 -103 -197q-34 -26 -34 -77v-34q0 -43 30 -73t72 -30h206q28 0 48 -20t20 -49v-137h-958v0zM991 -27q0 -28 -20 -48t-48 -20h-822
q-28 0 -48 20t-20 48h958v0z" />
    <glyph glyph-name="goods" unicode="&#xe60d;" 
d="M1003 680l-195 195q-8 9 -22.5 14.5t-26 5.5t-26 -5.5t-22.5 -14.5l-196 -195q-20 -20 -20 -48.5t20 -48.5l196 -196q20 -20 48.5 -20t48.5 20l195 196q20 20 20 48.5t-20 48.5zM759 436l-195 195l195 195l195 -195l-195 -195v0zM345 838h-275q-29 0 -49 -20t-20 -49
v-276q0 -28 20 -48.5t49 -20.5h275q29 0 49 20.5t20 48.5v276q0 29 -20 49t-49 20v0zM345 286h-275q-29 0 -49 -20t-20 -49v-275q0 -29 20 -49t49 -20h275q29 0 49 20t20 49v275q0 29 -20 49t-49 20zM897 286h-276q-28 0 -48.5 -20t-20.5 -49v-275q0 -29 20.5 -49t48.5 -20
h276q29 0 49 20t20 49v275q0 29 -20 49t-49 20z" />
    <glyph glyph-name="customer" unicode="&#xe60e;" 
d="M267 614v-5q0 -101 71.5 -173t173 -72t173 72t71.5 173v5q-2 99 -74 169.5t-171 70.5t-170.5 -70.5t-73.5 -169.5zM589 364l-78 -78l-77 78q-85 -14 -147 -56.5t-97.5 -108.5t-52 -144.5t-16.5 -173.5h783q0 95 -17 173.5t-53 144.5t-98 108.5t-147 56.5v0zM511 -49
l-83 83l83 252l84 -252l-84 -83v0z" />
    <glyph glyph-name="admin" unicode="&#xe60f;" 
d="M941 583q0 46 -38 69l-373 228q-25 15 -60 15t-59 -15l-373 -227q-37 -23 -37 -69.5t37 -69.5l373 -228q26 -16 60 -16t59 16l373 228q38 23 38 69zM510 802q-15 9 -39.5 9t-39.5 -9l-358 -219l358 -219q15 -9 39.5 -9t39.5 9l359 219zM556 190q11 32 48 37l101 15
q6 2 10 7l38 77l-243 -148q-15 -9 -39.5 -9t-39.5 9l-352 215h-78q2 -44 37 -66l373 -228q26 -15 60 -15t59 15l47 29l-4 4q-27 26 -17 58v0zM860 341l15 -31l28 18q15 9 26 28t12 37h-79l-35 -22q9 -3 19 -12t14 -18zM646 61l-25 25l-111 -68q-15 -9 -39.5 -9t-39.5 9
l-358 219h-72q0 -46 37 -69l373 -228q26 -16 60 -16t59 16l113 69l7 41q-1 6 -4 11v0zM1017 162q9 8 6.5 15t-13.5 9l-101 15q-12 2 -23.5 10.5t-17.5 18.5l-45 92q-6 11 -13 11t-13 -11l-45 -92q-6 -10 -17.5 -18.5t-23.5 -10.5l-101 -15q-12 -2 -14 -9t6 -15l74 -71
q15 -18 15 -42v-6l-17 -101q-3 -18 10 -18q5 0 10 3l91 48q11 5 24 5h1q15 0 25 -5l90 -48q6 -3 10 -3q14 0 11 18l-18 101v7q0 23 16 41l73 71v0zM1017 162q9 8 6.5 15t-13.5 9l-101 15q-12 2 -23.5 10.5t-17.5 18.5l-45 92q-6 11 -13 11t-13 -11l-45 -92
q-6 -10 -17.5 -18.5t-23.5 -10.5l-101 -15q-12 -2 -14 -9t6 -15l74 -71q15 -18 15 -42v-6l-17 -101q-3 -18 10 -18q5 0 10 3l91 48q11 5 24 5h1q15 0 25 -5l90 -48q6 -3 10 -3q14 0 11 18l-18 101v7q0 23 16 41l73 71v0z" />
    <glyph glyph-name="home" unicode="&#xe610;" 
d="M867 342v-377q0 -19 -13 -32t-32 -13h-178q-18 0 -31 13t-13 32v177q0 19 -13 32t-31 13h-89q-19 0 -32 -13t-13 -32v-177q0 -19 -13 -32t-31 -13h-178q-18 0 -31 13t-13 32v377h-134q-2 1 -6 2.5t-10 7t-6 13.5q0 13 5.5 24t11.5 16l5 4q443 421 467 445q10 10 21.5 10
t17.5 -5l5 -5l467 -445q22 -18 22 -44q0 -8 -5.5 -13.5t-10.5 -7.5l-6 -2h-133v0z" />
    <glyph glyph-name="hr" unicode="&#xe611;" 
d="M512 895q-104 1 -199 -39.5t-163.5 -109t-109 -163.5t-40.5 -199t40.5 -198.5t109 -163t163 -109t198.5 -40.5t198.5 40t163.5 108.5t109.5 163.5t40.5 199v1q0 104 -40.5 198.5t-109 163t-163 108.5t-198.5 40v0zM488 384q0 -142 1 -213q0 -6 -6 -6q-12 1 -24 1h-21
q-5 -1 -5 5v91v99q0 6 -6 6h-71q-6 0 -6 -6v-94t1 -95q0 -7 -7 -6h-22h-22q-5 -1 -5 5v242v184q0 6 5 6q20 -1 45 0q5 0 5 -5v-80v-93q0 -7 7 -7q30 1 70 0q6 0 6 6v84v89q0 6 6 6q22 -1 44 0q6 0 6 -6q-1 -71 -1 -213zM700 166q-3 0 -5 4l-46 133q-26 77 -31 91q-2 6 1 12
q6 11 19 10q2 -1 23 -0.5t23 0.5q4 0 4 4v128q0 2 -0.5 3t-3.5 1q-42 -1 -69 0q-4 0 -4 -6v-200v-87.5v-87.5q0 -6 -6 -5h-22.5h-22.5q-5 0 -5 4v428q0 5 5 5h77h65q27 0 38 -22q3 -8 3 -17v-1v-157q0 -37 -40 -40h-19l72 -200h-56z" />
    <glyph glyph-name="coupon" unicode="&#xe612;" 
d="M1013 349q11 7 11 20v203h-1024v-203q0 -13 11 -20q29 -19 45.5 -47.5t16.5 -61.5t-16.5 -61.5t-45.5 -47.5q-11 -7 -11 -20v-201h1024v201q0 13 -11 20q-29 19 -45.5 47.5t-16.5 61.5t16.5 61.5t45.5 47.5v0zM218 -16h-73v73h73v-73zM218 131h-73v73h73v-73zM218 277
h-73v73h73v-73v0zM218 424h-73v73h73v-73zM766 313v-72h-145v-74h145v-73h-145v-78h-73v78h-145v73h145v74h-145v72h91l-105 105l51 52l144 -144l144 144l52 -51l-106 -106h92v0zM583 864l-366 -220h514z" />
    <glyph glyph-name="finance" unicode="&#xe613;" 
d="M512 896v0q-104 0 -199 -40.5t-163.5 -109t-109 -163.5t-40.5 -199t40.5 -199t109 -163.5t163.5 -109t199 -40.5v0q104 0 199 40.5t163.5 109t109 163.5t40.5 199t-40.5 199t-109 163.5t-163.5 109t-199 40.5zM707 386v-73h-153v-41h153v-69h-153v-127h-82v127h-154v69
h154v41h-154v73h122l-151 278h91l109 -206q14 -25 23 -45q15 33 23 49l104 202h96l-150 -278h122z" />
    <glyph glyph-name="log" unicode="&#xe614;" 
d="M789 642q15 0 26 10.5t11 26.5v147q-1 15 -11.5 25.5t-25.5 10.5t-25.5 -10.5t-11.5 -25.5v-147q0 -15 11 -26t26 -11zM512 642v0q15 0 26 10.5t11 26.5v147q-1 15 -11.5 25.5t-25.5 10.5t-25.5 -10.5t-11.5 -25.5v-147q0 -15 11 -26t26 -11zM937 808h-74v-139
q0 -19 -13.5 -32.5t-32.5 -13.5h-56v0q-19 0 -32.5 13.5t-13.5 32.5v0v139h-129v-139q0 -19 -13.5 -32.5t-32.5 -13.5h-56v0q-19 0 -32.5 13.5t-13.5 32.5v0v139h-129v-139q0 -19 -13.5 -32.5t-32.5 -13.5h-56v0q-19 0 -32.5 13.5t-13.5 32.5v0v139h-74h-1q-22 0 -38 -16
t-16 -38v-1v-776v-1q0 -22 16 -38t38 -16h1h850h1q22 0 38 16t16 38v1v776v1q0 22 -16 38t-38 16h-1zM161 457h536q14 -1 24.5 -11.5t10.5 -25.5t-10.5 -25.5t-24.5 -11.5h-536q-15 1 -25 11.5t-10 25.5t10 25.5t25 11.5zM161 310h314q15 -1 25 -12t10 -25.5t-10 -25.5
t-25 -11h-314q-14 0 -24.5 11t-10.5 25.5t10.5 25.5t24.5 12v0zM863 106h-702q-15 1 -25 12t-10 25.5t10 25.5t25 11h702q14 0 24.5 -11t10.5 -25.5t-10 -25.5t-25 -12v0zM235 642q15 0 26 10.5t11 26.5v147q-1 15 -11.5 25.5t-25.5 10.5t-25.5 -10.5t-11.5 -25.5v-147
q0 -15 11 -26t26 -11v0z" />
    <glyph glyph-name="order" unicode="&#xe615;" 
d="M620 896h-226q-21 0 -35.5 -16t-14.5 -39t14.5 -39t35.5 -16h228q20 0 34 16.5t14 39t-14.5 38.5t-35.5 16v0zM866 859h-113q2 -9 2 -18q0 -35 -22 -63t-52 -28h-346q-31 0 -53.5 28t-22.5 63q0 9 2 18h-114q-64 0 -89 -32t-25 -93v-737q0 -62 28 -93t93 -31h705
q68 0 100 29t32 95v737q0 57 -31.5 91t-93.5 34zM750 133h-490q-13 0 -24.5 13t-11.5 26q0 14 10 24t24 10h488q14 0 24 -9.5t11 -24.5q0 -14 -9 -26.5t-22 -12.5zM752 327h-490q-13 0 -21 11.5t-8 26.5q0 13 10 24.5t23 11.5h489q13 0 23 -11t11 -25q0 -14 -11.5 -26
t-25.5 -12zM752 528h-490q-13 0 -21 11.5t-8 25.5t10 25t23 11h489q13 0 23 -11t11 -25q0 -14 -11.5 -25.5t-25.5 -11.5z" />
    <glyph glyph-name="set" unicode="&#xe616;" 
d="M937 274h87v220h-87q-66 0 -80 33t33 80l62 61l-156 156l-61 -62q-47 -47 -80 -33t-33 80v1v86h-220v-87q0 -66 -33 -80t-80 33l-61 62l-156 -156l62 -61q47 -47 33 -80t-80 -33h-87v-220h87q66 0 80 -33t-33 -80l-62 -61l156 -156l61 62q47 47 80 33t33 -80v-87h220v86
v1q0 66 33 80t80 -33l61 -62l156 156l-62 61q-47 47 -33 80t80 33zM512 192q-79 0 -135.5 56.5t-56.5 135.5t56.5 135.5t135.5 56.5t135.5 -56.5t56.5 -135.5t-56.5 -135.5t-135.5 -56.5z" />
    <glyph glyph-name="pay" unicode="&#xe617;" horiz-adv-x="1152" 
d="M1105 482l-433 380q-17 14 -45.5 24t-50.5 10t-50 -10t-46 -24l-433 -379q-15 -17 -15 -40q0 -20 13 -37t32 -22q7 -2 12 -4h1l2 1h128v-395q0 -43 28.5 -71t70.5 -28h514q42 0 70.5 28t28.5 71v395h125h1h2h1v0q24 1 41.5 19t17.5 43q0 22 -15 39zM717 180h-92v-59
q0 -21 -14 -35t-35 -14h-1q-20 0 -34 14t-14 34v1v59h-89q-17 0 -26.5 12t-9.5 30q0 17 9.5 27.5t26.5 10.5h89v49h-89q-17 0 -26.5 11.5t-9.5 29t9.5 28t26.5 10.5h86l-91 90q-12 13 -12 30t12.5 29t29.5 12t29 -12l83 -83l84 83q12 13 29 13t29 -12.5t12 -29.5t-12 -29
l-90 -91h88q16 0 26 -10.5t10 -28t-10 -29t-26 -11.5h-89v-49h86q38 0 38 -42q0 -38 -33 -38z" />
    <glyph glyph-name="operation" unicode="&#xe618;" 
d="M787 -9h-551q-9 0 -19 -10t-15 -20l-5 -10v-39h630v39q0 16 -11.5 28t-28.5 12zM905 896h-787q-49 0 -83.5 -34.5t-34.5 -83.5v-551q0 -49 34.5 -83.5t83.5 -34.5h276v-40q0 -16 11.5 -27.5t27.5 -11.5h158q15 0 27 12t12 27v40h275q49 0 83.5 34.5t34.5 83.5v551
q0 49 -34.5 83.5t-83.5 34.5zM118 266q-16 0 -27.5 11.5t-11.5 27.5v473q0 16 11.5 27.5t27.5 11.5h787q17 0 28.5 -11.5t11.5 -27.5v-473q0 -16 -11.5 -27.5t-28.5 -11.5h-787zM905.5 146q-16.5 0 -28.5 12t-12 29t12 29t28.5 12t28.5 -12t12 -29t-12 -29t-28.5 -12z
M799 718l-130 -130l-90 90q-12 12 -28 12q-9 0 -19 -6t-15 -14l-117 -205l-48 121q-5 10 -15.5 17.5t-21.5 7.5q-16 0 -28 -12l-118 -118q-11 -11 -11 -27.5t11.5 -28t27.5 -11.5t28 12l76 76l56 -142q4 -10 15 -17.5t22 -7.5q9 0 19 6t15 14l132 231l81 -82
q12 -11 28.5 -11t27.5 11l158 158q11 11 11 27.5t-11.5 28t-28 11.5t-27.5 -11z" />
    <glyph glyph-name="report" unicode="&#xe619;" 
d="M867 649q0 -13 9.5 -22.5t23 -9.5t23 9.5t9.5 22.5v166q0 14 -9.5 23.5t-23.5 9.5h-165q-14 0 -23.5 -9.5t-9.5 -23t9.5 -23.5t23.5 -10h89l-285 -286l-89 89q-9 10 -22.5 10t-23.5 -10l-303 -305q-10 -9 -10 -22.5t9.5 -23.5t23.5 -10t23 10l280 282l89 -89
q9 -9 22.5 -9t23.5 9l306 306v-84v0zM821 502h89q9 0 16.5 -7t7.5 -17v-604h-137v604q0 10 7 17t17 7zM592 373h89q10 0 17 -7t7 -17v-475h-137v475q0 10 7 17t17 7zM364 247h88q10 0 17 -7t7 -17v-349h-137v349q0 10 7.5 17t17.5 7zM135 109h89q9 0 16.5 -7t7.5 -17v-211
h-137v211q0 10 7 17t17 7z" />
    <glyph glyph-name="user" unicode="&#xe61a;" 
d="M496 377q111 0 190 76t79 183t-79 183t-190.5 76t-190.5 -76t-79 -183t79 -183t191 -76v0zM607 352h-202q-92 0 -170.5 -44t-124 -119t-45.5 -164v-19q0 -23 10.5 -40t36.5 -27t50 -16t72 -8.5t78.5 -3t92.5 -0.5h202q60 0 90 0.5t77.5 3t72 8.5t51.5 16t38 27t11 40v19
q0 89 -45.5 164t-124 119t-170.5 44v0z" />
    <glyph glyph-name="time" unicode="&#xe61b;" 
d="M512 896q-104 0 -198.5 -40.5t-163 -109t-109 -163.5t-40.5 -199t40.5 -199t109 -163.5t163 -109t198.5 -40.5t199 40.5t163.5 109t109 163.5t40.5 199t-40.5 199t-109 163.5t-163.5 109t-199 40.5v0zM745 291h-279v0q-20 0 -33.5 13.5t-13.5 32.5v0v326q0 19 13.5 33
t33 14t33 -14t13.5 -33v-279h233q19 0 32.5 -13.5t13.5 -33t-13.5 -33t-32.5 -13.5v0z" />
    <glyph glyph-name="shopping" unicode="&#xe61e;" horiz-adv-x="1228" 
d="M1148 285q-5 -32 -32.5 -55.5t-60.5 -23.5h-548q-34 0 -61 23.5t-31 56.5l-62 441q-4 33 16 52.5t53 13.5l702 -66q35 -6 53 -26t13 -52l-42 -364v0zM1035 157h-669l-89 661q-2 15 -12.5 25t-23.5 10q-3 1 -6 1v0h-161q-16 0 -28 -10.5t-12 -25.5t12 -25.5t28 -10.5h135
l89 -661q2 -16 13.5 -26t25.5 -9h698q17 0 28.5 10.5t11.5 25t-11.5 25t-28.5 10.5v0zM565 -40q0 -33 -23.5 -56.5t-56.5 -23.5h-4q-33 0 -56.5 23.5t-23.5 56.5t23.5 56.5t56.5 23.5h4q33 0 56.5 -23.5t23.5 -56.5v0zM1000 -39.5q0 -33.5 -23.5 -57t-56.5 -23.5h-1
q-33 0 -56.5 23.5t-23.5 57t23.5 56.5t57 23t57 -23t23.5 -56.5z" />
    <glyph glyph-name="shop" unicode="&#xe61c;" horiz-adv-x="1092" 
d="M736 314q-6 5 -15 5.5t-15 -5.5q-29 -24 -75.5 -41.5t-84 -17.5t-84 17.5t-75.5 42.5q-6 5 -14.5 5t-14.5 -5q-48 -42 -107.5 -54.5t-125.5 8.5q-10 2 -10 4v-273q0 -47 32 -75t80 -28h639q49 0 82.5 28t33.5 75v272q-71 -25 -133 -13.5t-113 55.5zM369 176h129
q11 0 19 -8t8 -20v-233h-184v233q0 12 8 20t20 8zM846 162v-72v0q0 -5 -4 -9t-10 -4h-136v0q-5 0 -9 4t-4 9v72q0 6 4 10t9 4h136q6 0 10 -4t4 -10zM1086 544q5 -21 5 -38q3 -68 -44.5 -129t-114.5 -73q-18 -4 -37 -4q-41 0 -86.5 23t-70.5 55q-7 9 -18 9t-18 -9
q-24 -32 -69.5 -54.5t-85.5 -22.5h-1v0q-40 0 -85.5 22.5t-70.5 54.5q-7 8 -18 8t-17 -8q-36 -47 -92.5 -67t-118.5 -3q-64 17 -103.5 70t-39.5 120q0 24 7 46q0 1 0.5 3.5t1.5 2.5l141 293q11 21 35.5 36.5t48.5 15.5v0h621q27 0 49.5 -14t34.5 -38l143 -292zM307 828
q-14 0 -24 -10t-10 -24.5t10 -24.5t24 -10h478q14 0 24 10t10 24.5t-10 24.5t-24 10h-478z" />
    <glyph glyph-name="date" unicode="&#xe61d;" horiz-adv-x="1170" 
d="M78 896h-41v-1002h1096v40l-1054 2l-1 960v0zM627 854q0 17 -12.5 29.5t-29.5 12.5v0h-127v0q-17 0 -29.5 -12.5t-12.5 -29.5v-835h211v835zM374 603q0 18 -12.5 30t-29.5 12v0h-127v0q-17 0 -29.5 -12t-12.5 -30v-584h211v584v0zM880 353q0 17 -12.5 29.5t-29.5 12.5v0
h-127v0q-17 0 -29.5 -12.5t-12.5 -29.5v-334h211v334v0zM964 245v0q-17 0 -29.5 -12t-12.5 -30v-185h211v185q0 18 -12.5 30t-29.5 12v0h-127z" />
    <glyph glyph-name="insurance" unicode="&#xe61f;" 
d="M882 773l-368 117q-15 5 -31 5t-31 -5l-369 -117q-21 -7 -36.5 -27.5t-15.5 -42.5v-257q0 -111 51.5 -211.5t143.5 -166.5l212 -153q20 -14 44.5 -14t44.5 14l213 153q91 66 143 166.5t52 211.5v257q0 24 -14.5 43.5t-38.5 26.5zM727 232q-5 -8 -14 -8h-1q-8 0 -27 12
q-24 15 -46 34q-24 18 -44 40q-23 23 -42 48v-153q0 -19 -20 -19t-20 19v161q-19 -26 -40 -47q-19 -20 -45 -42q-63 -48 -82 -48h-1q-7 0 -12 5v-27q0 -21 -21 -21q-20 0 -20 21v245l-1 -2v0l-4 -7q-16 -27 -20 -31q-5 -3 -11 -5q-5 -2 -10 -2h-1v0q-5 1 -9 5q-4 3 -5 9v5
q0 4 1 8q2 8 9 17q31 45 52 95q22 52 32 102q7 31 22 31q20 0 20 -25q0 -12 -11 -48q-4 -15 -11 -34q-5 -17 -13 -33v-277q7 8 24 16q18 9 34 21q19 14 39 33q19 17 35 35q15 17 31 38h-135q-19 0 -19 17q0 13 4.5 17.5t14.5 4.5h154v42h-80q-23 0 -33 11q-10 10 -10 34v84
q0 23 10.5 33.5t32.5 10.5h200q22 0 31 -10q10 -10 10 -34v-83q0 -24 -10 -35q-10 -10 -32 -10h-80v-42h152q19 0 19 -20t-19 -20h-141q14 -18 33 -39q17 -19 34 -35q20 -19 39 -34q16 -13 35 -23q26 -16 26 -27q1 -6 -4 -13v0zM635 530v73q0 10 -9 10h-186q-9 0 -9 -10v-73
q0 -11 9 -11h187q8 0 8 11z" />
    <glyph glyph-name="logistics" unicode="&#xe620;" horiz-adv-x="1280" 
d="M443 34v-3q0 -51 -36 -87t-87 -36t-87 36t-36 87v3q1 50 37 85t85.5 35t86 -35t37.5 -85zM1132 34v-3q0 -51 -36 -87t-87 -36t-87 36t-36 87v3q1 50 37 85t85.5 35t85.5 -35t38 -85zM1242 454l-110 196q-1 1 -6.5 7.5t-6.5 8t-6 6.5l-6.5 6.5t-6 5.5t-7.5 5.5t-7.5 4
t-8.5 3t-9 1.5t-10 1h-172v148q0 20 -14.5 34.5t-34.5 14.5h-788q-20 0 -34.5 -14.5t-14.5 -35.5v-738q0 -20 14.5 -34.5t34.5 -14.5h98q9 62 59.5 106t113.5 44q65 0 114 -43t58 -107h344q9 62 59.5 106t113.5 44q65 0 114 -43t58 -107h49q20 0 34.5 14.5t14.5 34.5v246
q0 21 -9 46t-19 39zM935 354v246h120q4 0 8.5 -2.5t7.5 -5.5l3 -3l104 -193q19 -28 19 -42h-262v0z" />
  </font>
</defs>
</svg>
